<?xml version="1.0" encoding="UTF-8" standalone="no"?>
<!-- Created with Inkscape (http://www.inkscape.org/) -->

<svg
   xmlns:dc="http://purl.org/dc/elements/1.1/"
   xmlns:cc="http://creativecommons.org/ns#"
   xmlns:rdf="http://www.w3.org/1999/02/22-rdf-syntax-ns#"
   xmlns:svg="http://www.w3.org/2000/svg"
   xmlns="http://www.w3.org/2000/svg"
   xmlns:sodipodi="http://sodipodi.sourceforge.net/DTD/sodipodi-0.dtd"
   xmlns:inkscape="http://www.inkscape.org/namespaces/inkscape"
   width="167.60605mm"
   height="161.25369mm"
   viewBox="0 0 593.8797 571.37135"
   id="svg3452"
   version="1.1"
   inkscape:version="0.91 r13725"
   sodipodi:docname="swirl.svg">
  <defs
     id="defs3454">
    <radialGradient
       id="radialGradient3505"
       spreadMethod="pad"
       gradientUnits="userSpaceOnUse"
       r="310.92877"
       cy="406"
       cx="238.22656"
       fy="406"
       fx="238.22656">
      <stop
         id="stop3507"
         offset="0"
         style="stop-opacity:1;stop-color:#ffffff" />
      <stop
         id="stop3509"
         offset="1"
         style="stop-opacity:1;stop-color:#000000" />
    </radialGradient>
    <radialGradient
       id="radialGradient3513"
       spreadMethod="pad"
       gradientUnits="userSpaceOnUse"
       r="342.97192"
       cy="391.80469"
       cx="304.54688"
       fy="391.80469"
       fx="304.54688">
      <stop
         id="stop3515"
         offset="0"
         style="stop-opacity:1;stop-color:#ffffff" />
      <stop
         id="stop3517"
         offset="1"
         style="stop-opacity:1;stop-color:#000050" />
    </radialGradient>
    <radialGradient
       id="radialGradient3521"
       spreadMethod="pad"
       gradientUnits="userSpaceOnUse"
       r="343.25562"
       cy="421.5"
       cx="412.54297"
       fy="421.5"
       fx="412.54297">
      <stop
         id="stop3523"
         offset="0"
         style="stop-opacity:1;stop-color:#ffffff" />
      <stop
         id="stop3525"
         offset="1"
         style="stop-opacity:1;stop-color:#000050" />
    </radialGradient>
    <radialGradient
       id="radialGradient3529"
       spreadMethod="pad"
       gradientUnits="userSpaceOnUse"
       r="343.21118"
       cy="421.73438"
       cx="183.5"
       fy="421.73438"
       fx="183.5">
      <stop
         id="stop3531"
         offset="0"
         style="stop-opacity:1;stop-color:#ffffff" />
      <stop
         id="stop3533"
         offset="1"
         style="stop-opacity:1;stop-color:#000000" />
    </radialGradient>
    <radialGradient
       id="radialGradient3537"
       spreadMethod="pad"
       gradientUnits="userSpaceOnUse"
       r="342.94019"
       cy="391.76855"
       cx="292.47852"
       fy="391.76855"
       fx="292.47852">
      <stop
         id="stop3539"
         offset="0"
         style="stop-opacity:1;stop-color:#ffffff" />
      <stop
         id="stop3541"
         offset="1"
         style="stop-opacity:1;stop-color:#000000" />
    </radialGradient>
    <radialGradient
       id="radialGradient3545"
       spreadMethod="pad"
       gradientUnits="userSpaceOnUse"
       r="260.99408"
       cy="406.40381"
       cx="113.74414"
       fy="406.40381"
       fx="113.74414">
      <stop
         id="stop3547"
         offset="0"
         style="stop-opacity:1;stop-color:#ffffff" />
      <stop
         id="stop3549"
         offset="1"
         style="stop-opacity:1;stop-color:#600000" />
    </radialGradient>
    <radialGradient
       id="radialGradient3553"
       spreadMethod="pad"
       gradientUnits="userSpaceOnUse"
       r="260.99405"
       cy="406.40381"
       cx="297.25"
       fy="406.40381"
       fx="297.25">
      <stop
         id="stop3555"
         offset="0"
         style="stop-opacity:1;stop-color:#ffffff" />
      <stop
         id="stop3557"
         offset="1"
         style="stop-opacity:1;stop-color:#600000" />
    </radialGradient>
    <radialGradient
       id="radialGradient3561"
       spreadMethod="pad"
       gradientUnits="userSpaceOnUse"
       r="260.99405"
       cy="406.40381"
       cx="480.75488"
       fy="406.40381"
       fx="480.75488">
      <stop
         id="stop3563"
         offset="0"
         style="stop-opacity:1;stop-color:#ffffff" />
      <stop
         id="stop3565"
         offset="1"
         style="stop-opacity:1;stop-color:#600000" />
    </radialGradient>
    <radialGradient
       id="radialGradient3569"
       spreadMethod="pad"
       gradientUnits="userSpaceOnUse"
       r="311.12283"
       cy="406"
       cx="358.80078"
       fy="406"
       fx="358.80078">
      <stop
         id="stop3571"
         offset="0"
         style="stop-opacity:1;stop-color:#ffffff" />
      <stop
         id="stop3573"
         offset="1"
         style="stop-opacity:1;stop-color:#000050" />
    </radialGradient>
  </defs>
  <sodipodi:namedview
     id="base"
     pagecolor="#ffffff"
     bordercolor="#666666"
     borderopacity="1.0"
     inkscape:pageopacity="0.0"
     inkscape:pageshadow="2"
     inkscape:zoom="0.35"
     inkscape:cx="-223.53192"
     inkscape:cy="179.97141"
     inkscape:document-units="px"
     inkscape:current-layer="layer1"
     showgrid="false"
     fit-margin-top="0"
     fit-margin-left="0"
     fit-margin-right="0"
     fit-margin-bottom="0"
     inkscape:window-width="1440"
     inkscape:window-height="801"
     inkscape:window-x="0"
     inkscape:window-y="1"
     inkscape:window-maximized="1" />
  <metadata
     id="metadata3457">
    <rdf:RDF>
      <cc:Work
         rdf:about="">
        <dc:format>image/svg+xml</dc:format>
        <dc:type
           rdf:resource="http://purl.org/dc/dcmitype/StillImage" />
        <dc:title></dc:title>
      </cc:Work>
    </rdf:RDF>
  </metadata>
  <g
     inkscape:label="Layer 1"
     inkscape:groupmode="layer"
     id="layer1"
     transform="translate(-137.10335,-140.96224)">
    <g
       transform="matrix(0.71836022,0,0,-0.71836022,219.72476,718.89937)"
       inkscape:label="Interlocking3"
       id="g3503">
      <path
         inkscape:connector-curvature="0"
         id="path3511"
         style="fill:url(#radialGradient3505);fill-opacity:1;fill-rule:nonzero;stroke:none"
         d="m 47,90 c -17,12 -33,25 -50,37 -57,78 -80,179 -54,275 10,38 28,71 53,101 26,31 57,53 94,68 32,12 65,16 100,11 19,-3 36,-9 53,-18 47,-26 80,-80 63,-133 -5,-15 -14,-29 -27,-39 -12,-9 -25,-13 -39,-18 -17,-6 -27,-23 -25,-40 2,-21 13,-38 29,-51 34,-28 77,-32 119,-22 55,13 97,48 126,96 19,32 30,64 35,100 4,34 4,67 -4,101 -15,64 -46,119 -91,164 17,-11 33,-25 50,-36 42,-59 67,-131 65,-204 -2,-52 -15,-101 -45,-147 -26,-40 -60,-68 -101,-88 -39,-18 -81,-23 -124,-14 -35,8 -64,26 -86,55 -12,17 -20,36 -22,56 -3,35 14,72 47,86 17,7 40,11 45,31 15,51 -40,88 -85,94 -48,6 -95,-9 -133,-39 -25,-21 -45,-44 -60,-73 -14,-28 -24,-56 -28,-87 -4,-34 -4,-67 4,-101 C -29,191 2,136 47,90 l 0,0 z" />
      <path
         inkscape:connector-curvature="0"
         id="path3519"
         style="fill:url(#radialGradient3513);fill-opacity:1;fill-rule:nonzero;stroke:none"
         d="M 324,10 C 263,6 201,16 144,39 274,-3 430,27 518,144 c 21,29 35,61 39,96 1,12 0,24 -7,34 -2,2 -4,2 -7,3 -6,1 -10,-3 -15,-6 -21,-16 -36,-35 -57,-51 -2,-2 -3,-3 -5,-5 -22,-16 -43,-28 -67,-38 -38,-15 -78,-20 -119,-17 -51,5 -97,21 -140,52 C 84,252 47,304 25,367 -26,512 29,677 144,774 127,755 113,734 102,711 38,629 6,525 28,418 44,342 81,278 146,232 c 57,-41 121,-58 190,-45 56,10 103,39 136,87 28,41 36,85 40,132 1,7 4,14 7,20 1,2 4,3 5,4 8,5 17,2 24,-3 2,-2 4,-3 7,-5 15,-13 25,-29 33,-47 30,-74 14,-155 -32,-223 -6,-8 -11,-15 -17,-23 C 484,62 407,22 324,10 l 0,0 z" />
      <path
         inkscape:connector-curvature="0"
         id="path3527"
         style="fill:url(#radialGradient3521);fill-opacity:1;fill-rule:nonzero;stroke:none"
         d="m 573,39 c 18,18 31,40 42,63 40,51 67,110 77,175 9,65 1,129 -26,188 -15,32 -34,59 -58,85 -11,12 -24,20 -37,31 -29,22 -60,35 -96,43 -32,7 -62,7 -94,2 -46,-8 -86,-31 -118,-64 -20,-22 -34,-48 -44,-76 -8,-25 -10,-50 -14,-76 -1,-8 -1,-17 -7,-24 -1,-1 -2,-2 -3,-3 -7,-5 -16,-3 -23,2 -68,47 -67,136 -45,206 14,44 39,82 71,115 19,19 39,35 62,48 46,28 94,46 146,50 42,2 82,-5 124,-15 10,-3 19,-6 29,-9 5,-2 9,-4 14,-6 -127,41 -280,13 -368,-98 -4,-5 -7,-10 -11,-15 -13,-20 -23,-39 -29,-62 -4,-16 -7,-32 -3,-49 1,-6 4,-12 10,-13 13,-3 22,9 31,17 41,42 87,76 144,91 80,21 161,6 230,-44 C 654,546 698,465 709,374 719,292 701,213 659,141 635,102 608,67 573,39 l 0,0 z" />
      <path
         inkscape:connector-curvature="0"
         id="path3535"
         style="fill:url(#radialGradient3529);fill-opacity:1;fill-rule:nonzero;stroke:none"
         d="M -18,102 C -16,92 -9,85 -4,76 3,63 13,51 23,39 c -86,74 -139,185 -138,298 1,37 7,74 19,109 6,16 13,32 21,48 8,15 17,28 27,42 11,13 20,25 32,36 33,30 69,55 112,68 8,2 16,5 25,7 63,14 126,7 183,-23 21,-11 39,-23 57,-39 17,-15 31,-31 49,-44 4,-3 9,-6 14,-5 4,1 6,4 7,6 9,16 6,35 2,52 -10,37 -29,68 -54,97 -5,5 -10,10 -15,15 -92,85 -226,104 -341,68 5,2 10,4 15,6 10,3 19,6 29,9 46,11 90,19 137,14 36,-5 70,-17 103,-32 34,-16 63,-39 91,-65 39,-38 65,-84 78,-138 10,-42 8,-83 -6,-123 -8,-22 -20,-42 -39,-57 -8,-5 -16,-9 -25,-7 -4,1 -7,4 -9,7 -2,4 -3,7 -4,11 -3,18 -4,35 -7,53 C 375,515 340,570 283,601 210,642 124,638 52,598 -19,558 -68,492 -88,413 -116,303 -87,188 -18,102 l 0,0 z" />
      <path
         inkscape:connector-curvature="0"
         id="path3543"
         style="fill:url(#radialGradient3537);fill-opacity:1;fill-rule:nonzero;stroke:none"
         d="M 453,39 C 396,16 334,5 272,11 230,15 192,30 154,50 46,107 -31,229 1,353 c 2,5 3,10 5,15 7,18 16,34 29,48 10,9 23,21 37,14 12,-5 12,-20 13,-32 6,-64 27,-127 81,-168 32,-25 67,-39 107,-45 23,-3 45,-2 68,2 86,12 156,69 197,145 27,51 39,107 37,164 -4,78 -31,154 -81,215 -2,10 -8,17 -14,26 -8,13 -16,26 -27,37 55,-48 98,-109 120,-180 6,-20 11,-39 14,-59 3,-20 4,-39 4,-59 -1,-37 -7,-74 -19,-109 -6,-16 -13,-32 -21,-48 -11,-19 -22,-38 -37,-55 -24,-28 -51,-49 -82,-68 -36,-21 -74,-32 -115,-36 -56,-5 -110,8 -160,37 -33,20 -58,46 -86,72 -6,5 -17,13 -24,5 C 35,258 39,238 43,219 50,191 62,168 79,144 167,26 323,-3 453,39 l 0,0 z" />
      <path
         inkscape:connector-curvature="0"
         id="path3551"
         style="fill:url(#radialGradient3545);fill-opacity:1;fill-rule:nonzero;stroke:none"
         d="m 144.8472,38.6152 -62.2056,0 0,735.5772 62.2056,0 0,-735.5772 z" />
      <path
         inkscape:connector-curvature="0"
         id="path3559"
         style="fill:url(#radialGradient3553);fill-opacity:1;fill-rule:nonzero;stroke:none"
         d="m 328.3525,38.6152 -62.2055,0 0,735.5772 62.2055,0 0,-735.5772 z" />
      <path
         inkscape:connector-curvature="0"
         id="path3567"
         style="fill:url(#radialGradient3561);fill-opacity:1;fill-rule:nonzero;stroke:none"
         d="m 511.8574,38.6152 -62.2051,0 0,735.5772 62.2051,0 0,-735.5772 z" />
      <path
         inkscape:connector-curvature="0"
         id="path3575"
         style="fill:url(#radialGradient3569);fill-opacity:1;fill-rule:nonzero;stroke:none"
         d="m 600,127 c -4,-3 -8,-5 -12,-8 -13,-11 -26,-20 -39,-29 81,79 120,201 85,312 -22,67 -71,126 -140,147 -7,2 -14,3 -21,5 -50,9 -104,-4 -130,-49 -8,-15 -11,-32 -4,-48 4,-7 10,-12 17,-16 9,-4 19,-7 28,-11 9,-5 17,-11 25,-18 7,-7 11,-15 14,-23 11,-22 10,-46 2,-69 -12,-34 -39,-61 -71,-76 -93,-43 -202,5 -256,91 -22,35 -35,71 -42,111 -14,87 13,171 61,240 18,11 33,25 51,36 -28,-27 -50,-60 -68,-95 -8,-17 -13,-34 -19,-52 -8,-28 -10,-57 -11,-86 0,-37 9,-72 24,-106 19,-41 47,-76 87,-100 42,-26 92,-35 138,-19 31,11 59,36 63,70 2,17 -8,34 -25,40 -14,4 -27,9 -39,18 -16,12 -24,28 -29,46 -10,41 8,81 39,108 61,53 149,48 216,6 62,-38 98,-97 114,-167 20,-92 -4,-184 -58,-258 l 0,0 z" />
    </g>
  </g>
</svg>
